<?xml version="1.0" standalone="no"?><!DOCTYPE svg PUBLIC "-//W3C//DTD SVG 1.1//EN" "http://www.w3.org/Graphics/SVG/1.1/DTD/svg11.dtd"><svg t="1531104311688" class="icon" style="" viewBox="0 0 1024 1024" version="1.1" xmlns="http://www.w3.org/2000/svg" p-id="1997" xmlns:xlink="http://www.w3.org/1999/xlink" width="200" height="200"><defs><style type="text/css"></style></defs><path d="M225.771023 245.464551 354.016873 245.464551l0 94.789876L225.771023 340.254427 225.771023 245.464551 225.771023 245.464551M417.210124 245.464551l128.245849 0 0 94.789876L417.210124 340.254427 417.210124 245.464551 417.210124 245.464551 417.210124 245.464551M225.771023 405.290653 354.016873 405.290653l0 94.789876L225.771023 500.080529 225.771023 405.290653 225.771023 405.290653M417.210124 405.290653l128.245849 0 0 94.789876L417.210124 500.080529 417.210124 405.290653 417.210124 405.290653 417.210124 405.290653M735.033679 405.290653l63.193251 0 0 94.789876-63.193251 0L735.033679 405.290653 735.033679 405.290653M735.033679 563.272757l63.193251 0 0 94.819552-63.193251 0L735.033679 563.272757 735.033679 563.272757M225.771023 563.272757 354.016873 563.272757l0 94.819552L225.771023 658.092309 225.771023 563.272757 225.771023 563.272757M417.210124 563.272757l128.245849 0 0 94.819552L417.210124 658.092309 417.210124 563.272757 417.210124 563.272757 417.210124 563.272757M926.487106 851.390757l0-574.330604L671.841451 277.060153 671.841451 85.60775l-574.330604 0 0 763.90831L65.914222 849.51606l0 63.193251L958.084755 912.709311l0-63.193251-31.597649 0L926.487106 851.390757M160.704099 851.390757 160.704099 148.799978l446.100104 0 0 700.716082L160.704099 849.51606 160.704099 851.390757M671.841451 851.390757 671.841451 340.253404 863.295901 340.253404l0 509.262656L671.841451 849.51606 671.841451 851.390757M671.841451 851.390757 671.841451 851.390757z" p-id="1998"></path></svg>