<?xml version="1.0" standalone="no"?><!DOCTYPE svg PUBLIC "-//W3C//DTD SVG 1.1//EN" "http://www.w3.org/Graphics/SVG/1.1/DTD/svg11.dtd"><svg t="1530869911778" class="icon" style="" viewBox="0 0 1304 1024" version="1.1" xmlns="http://www.w3.org/2000/svg" p-id="1966" xmlns:xlink="http://www.w3.org/1999/xlink" width="254.6875" height="200"><defs><style type="text/css"></style></defs><path d="M1184.79444539 429.5090376c-7.69778519 0-15.04633889-0.874774-22.21971175-2.27396032l-15.74593206 72.605112c-2.44914117 73.48101621-44.43829329 326.46588375-44.43829327 326.46588376H212.39724653s-26.41727071-253.50927988-32.89105041-330.66457292l-13.82233339-72.43106136c-11.37093183 3.8494577-23.26853638 6.29859885-35.68942307 6.29859884-63.68332134 0-115.29498749-51.78571678-115.29498749-115.8193998 0-63.85850218 51.61166614-115.64534916 115.29498749-115.64534916 63.85850218 0 115.29498749 51.78571678 115.29498748 115.64534916 0 19.41907869-5.24864401 37.44010127-13.64715256 53.53526479l211.34494693 78.72966022 177.57912251-287.62433576c-45.48824813-15.39670057-78.55447938-58.26062668-78.55447941-109.17269967C542.01186461-14.69984461 593.62240056-66.66187243 657.3068521-66.66187243c63.68332134 0 115.47016832 51.78571678 115.47016832 115.81939981 0 50.91207298-33.06623125 93.77599911-78.72966022 109.17156946l177.5791225 287.62546597 209.24503723-82.5779877c-7.17337286-15.22151973-11.54724287-31.84222578-11.54724286-49.68693731 0-63.85850218 51.78571678-115.82053 115.47016832-115.82053 63.68332134 0 115.29498749 51.78571678 115.29498748 115.82053 0 64.03255283-51.61166614 115.81939981-115.29498748 115.8193998z m-82.40280687 528.88790982C1056.37671767 1056.71973697 1000.04195002 1090.66187243 904.51527273 1090.66187243H410.09730128c-72.78142305 0-157.45932044-33.94100526-197.69892455-132.26605522V925.50589699h890.16844263v32.89105043h-0.17518084z m0 0" p-id="1967"></path></svg>