<?xml version="1.0" standalone="no"?><!DOCTYPE svg PUBLIC "-//W3C//DTD SVG 1.1//EN" "http://www.w3.org/Graphics/SVG/1.1/DTD/svg11.dtd"><svg t="1532081355078" class="icon" style="" viewBox="0 0 1024 1024" version="1.1" xmlns="http://www.w3.org/2000/svg" p-id="1642" xmlns:xlink="http://www.w3.org/1999/xlink" width="200" height="200"><defs><style type="text/css"></style></defs><path d="M864 304H757.11C805 272 832 232 832 192c0-77.37-56.25-112-112-112-77.57 0-143.89 44.3-191.78 128.12-6.06 10.6-11.45 21.19-16.22 31.44-4.77-10.25-10.16-20.84-16.22-31.44C447.89 124.3 381.57 80 304 80c-55.75 0-112 34.63-112 112 0 40 27 80 74.89 112H160a32 32 0 0 0-32 32v576a32 32 0 0 0 32 32h704a32 32 0 0 0 32-32V336a32 32 0 0 0-32-32z m-32 288H544V368h288zM584.5 238.63C620.75 175.84 666.34 144 720 144c6 0 21.25 0.94 32.8 9.6C763 161.27 768 173.83 768 192c0 23.19-31 50.9-61.64 68.08-40.6 22.74-93.1 37.27-150.9 42.12a393.57 393.57 0 0 1 29.04-63.57z m-313.3-85C282.75 144.94 298 144 304 144c53.66 0 99.25 31.84 135.5 94.63a393.57 393.57 0 0 1 29 63.57c-57.81-4.85-110.3-19.39-150.9-42.12C287 242.9 256 215.19 256 192c0-18.17 5-30.73 15.2-38.4zM480 368v224H192V368zM192 656h288v224H192z m352 224V656h288v224z" p-id="1643"></path></svg>