<?xml version="1.0" standalone="no"?><!DOCTYPE svg PUBLIC "-//W3C//DTD SVG 1.1//EN" "http://www.w3.org/Graphics/SVG/1.1/DTD/svg11.dtd"><svg t="1530612213090" class="icon" style="" viewBox="0 0 1024 1024" version="1.1" xmlns="http://www.w3.org/2000/svg" p-id="2621" xmlns:xlink="http://www.w3.org/1999/xlink" width="200" height="200"><defs><style type="text/css"></style></defs><path d="M598.08 625.792c-22.016 22.592-42.816 44.16-64 65.408-17.792 17.856-36.928 34.496-53.504 53.376-9.472 10.88-17.728 24.256-22.08 37.952a3837.44 3837.44 0 0 0-43.648 147.904c-3.968 14.336-4.032 29.696-5.632 43.072-22.272 0-45.632 1.088-68.992-0.192-62.528-3.264-124.544-9.856-184.832-28.032-25.92-7.808-50.752-18.048-72.448-34.688-22.784-17.536-32.512-40.448-34.752-69.504-3.776-49.472 19.712-83.776 54.656-113.344 42.56-36.032 91.072-62.272 141.696-84.8 20.16-9.024 40.768-17.088 61.312-24.96 37.952-14.592 49.408-64.768 22.656-95.552C260.544 444.224 226.048 353.408 232.96 249.344c4.736-70.72 33.472-129.92 95.808-168.832A200.32 200.32 0 0 1 410.24 51.968c13.248-1.728 26.816-4.608 39.936-3.584 74.56 5.824 137.152 33.6 176 101.376 26.048 45.568 33.664 95.424 29.504 147.072-7.168 87.232-40.704 163.328-98.944 228.608-16.512 18.56-15.296 65.152 2.24 82.304 4.48 4.416 10.688 7.424 16.576 10.048 7.104 3.264 14.848 5.312 22.528 8zM745.728 583.36l133.696 133.568-33.856 33.408c-58.432 57.728-116.736 115.712-175.424 173.248a45.632 45.632 0 0 1-18.112 10.88c-46.208 14.08-92.544 27.52-138.944 41.024-6.464 1.856-12.032 7.168-20.096 1.344-9.024-6.464-12.416-14.016-9.536-23.872 14.528-50.432 29.312-100.736 44.288-150.976a25.92 25.92 0 0 1 7.04-9.984c69.056-68.608 138.24-137.216 207.424-205.696 1.408-1.408 3.136-2.56 3.52-2.944z m-108.096 316.416c-14.656-7.936-14.592-19.2-14.976-30.272l-0.64-14.528c-0.576-16.832-0.64-15.936-17.088-17.92-15.04-1.856-32.128 3.136-44.8-12.032-7.808 26.432-15.424 51.52-22.592 76.672-1.92 6.784 13.504 23.296 20.224 21.376 25.472-7.104 50.816-14.784 79.872-23.296zM819.2 512.704c8-7.68 15.616-16.128 24.512-23.04a41.856 41.856 0 0 1 54.4 1.728c24.448 22.72 48.256 46.4 70.912 70.912 14.912 16.192 13.504 41.216-1.088 57.792-6.592 7.424-13.824 14.336-19.968 20.608l-128.768-128zM929.536 666.496l-27.84 25.92-133.44-133.696 27.52-25.984 133.76 133.76z" fill="" p-id="2622"></path></svg>